<?xml version="1.0" standalone="no"?>
<!DOCTYPE svg PUBLIC "-//W3C//DTD SVG 20010904//EN"
 "http://www.w3.org/TR/2001/REC-SVG-20010904/DTD/svg10.dtd">
<svg version="1.0" xmlns="http://www.w3.org/2000/svg"
 width="664.000000pt" height="485.000000pt" viewBox="0 0 664.000000 485.000000"
 preserveAspectRatio="xMidYMid meet">

<g transform="translate(0.000000,485.000000) scale(0.100000,-0.100000)"
fill="#000000" stroke="none">
<path d="M1424 4751 c-119 -77 -142 -99 -176 -159 -12 -23 -43 -43 -130 -85
-179 -86 -262 -158 -309 -272 l-23 -55 -78 0 c-43 0 -78 -1 -78 -3 0 -1 -18
-65 -40 -142 -22 -76 -36 -142 -32 -146 35 -31 122 -97 132 -101 19 -6 -119
-709 -499 -2548 -180 -874 -181 -878 -181 -950 0 -146 90 -254 234 -279 44 -8
974 -11 3203 -11 l3141 0 7 83 c19 256 26 453 32 912 6 546 -6 866 -47 1285
-43 426 -81 579 -165 663 l-38 37 76 0 77 0 0 197 c0 245 -5 261 -119 340 -2
2 10 23 28 48 106 148 129 354 56 512 -34 75 -115 158 -189 192 -89 42 -157
55 -281 55 -126 -1 -233 -21 -337 -66 l-70 -29 -58 30 c-88 47 -168 64 -300
64 -127 0 -245 -23 -344 -67 l-57 -25 -52 29 c-83 46 -159 63 -277 63 -154 0
-258 -34 -344 -113 l-43 -40 -27 29 c-38 40 -130 87 -207 108 -137 36 -373 14
-514 -47 -30 -13 -114 -31 -208 -45 l-158 -23 -37 40 c-51 56 -104 80 -187 85
-63 4 -76 2 -129 -25 -53 -28 -65 -30 -130 -25 -87 6 -145 -8 -190 -47 -32
-29 -34 -29 -88 -18 -75 16 -153 -2 -213 -48 l-45 -34 0 35 0 35 -70 0 -70 0
0 33 c0 85 -100 218 -204 273 l-53 27 -23 154 c-14 90 -28 153 -34 153 -6 0
-65 -36 -132 -79z m16 -249 c0 -15 9 -45 19 -67 15 -34 31 -47 101 -85 100
-54 135 -98 135 -171 0 -40 -7 -57 -43 -108 l-43 -61 106 0 c58 0 105 -3 105
-7 -1 -33 -16 -53 -49 -64 -20 -6 -44 -18 -53 -27 -58 -50 -192 -531 -367
-1322 -128 -573 -154 -700 -148 -706 3 -3 61 50 129 118 195 194 380 424 575
715 l97 144 302 -3 302 -3 26 -24 c33 -31 35 -85 5 -144 -49 -96 -223 -341
-343 -482 -100 -117 -342 -359 -493 -493 -136 -120 -142 -127 -128 -146 189
-265 383 -762 490 -1258 14 -65 25 -120 25 -123 0 -3 -148 -4 -329 -3 -316 3
-331 4 -357 24 -43 31 -68 94 -103 254 -69 312 -170 635 -254 814 -44 92 -52
105 -58 85 -4 -13 -61 -284 -125 -601 l-118 -578 -287 0 c-159 0 -299 4 -313
10 -39 15 -60 55 -58 113 1 51 25 170 281 1415 268 1298 411 2033 411 2108 0
47 -21 75 -77 103 -50 25 -53 29 -42 59 8 21 14 22 113 22 l105 0 -11 31 c-6
17 -8 52 -6 79 10 96 84 165 261 242 99 42 147 81 178 141 22 41 39 41 39 -1z
m2405 -363 c33 -6 76 -19 96 -29 136 -70 171 -280 70 -431 -17 -24 -78 -85
-138 -134 -92 -77 -152 -147 -153 -177 0 -5 72 -8 159 -8 196 0 191 3 191
-116 l0 -84 -289 0 c-349 0 -326 -9 -319 127 5 82 10 102 42 166 44 87 53 98
189 216 113 97 137 130 137 181 0 75 -35 90 -209 90 -86 0 -131 4 -139 12 -7
7 -12 40 -12 80 0 79 -3 76 117 102 83 18 180 20 258 5z m854 -26 c125 -62
181 -240 168 -528 -15 -326 -106 -445 -342 -445 -236 0 -327 119 -342 445 -12
273 43 462 154 523 59 32 114 42 217 37 72 -3 99 -9 145 -32z m676 26 c33 -6
76 -19 96 -29 136 -70 171 -280 70 -431 -17 -24 -78 -85 -138 -134 -92 -77
-152 -147 -153 -177 0 -5 72 -8 159 -8 196 0 191 3 191 -116 l0 -84 -289 0
c-349 0 -326 -9 -319 127 5 82 10 102 42 166 44 87 53 98 189 216 113 97 137
130 137 181 0 75 -35 90 -209 90 -86 0 -131 4 -139 12 -7 7 -12 40 -12 80 0
79 -3 76 117 102 83 18 180 20 258 5z m760 0 c33 -6 76 -19 96 -29 136 -70
171 -280 70 -431 -17 -24 -78 -85 -138 -134 -92 -77 -152 -147 -153 -177 0 -5
72 -8 159 -8 196 0 191 3 191 -116 l0 -84 -289 0 c-349 0 -326 -9 -319 127 5
82 10 102 42 166 44 87 53 98 189 216 113 97 137 130 137 181 0 75 -35 90
-209 90 -86 0 -131 4 -139 12 -7 7 -12 40 -12 80 0 79 -3 76 117 102 83 18
180 20 258 5z m-3277 -22 c51 -54 56 -306 9 -429 -68 -177 -203 -309 -383
-374 -88 -32 -118 -31 -156 6 -25 26 -29 36 -24 63 9 43 21 53 99 82 134 48
234 136 291 255 29 62 31 71 30 180 -1 63 -3 134 -5 157 -5 57 19 83 76 83 30
0 47 -6 63 -23z m-289 -43 c39 -33 54 -89 49 -181 -9 -135 -91 -253 -216 -311
-77 -35 -137 -34 -169 2 -46 54 -22 115 55 135 58 16 116 63 141 115 20 41 22
55 16 134 -7 88 -7 89 20 110 36 29 67 28 104 -4z m-277 -73 c27 -24 33 -36
33 -71 0 -35 -6 -47 -34 -72 -28 -25 -40 -29 -68 -25 -72 12 -110 60 -98 124
13 73 107 98 167 44z m1748 -1127 c192 -33 351 -107 457 -212 145 -143 202
-314 190 -565 -23 -456 -291 -829 -696 -968 -142 -49 -394 -66 -594 -39 -49 7
-90 10 -92 9 -2 -2 -47 -210 -101 -461 l-97 -458 -279 0 c-296 0 -323 4 -348
49 -28 54 -15 123 308 1618 115 530 211 965 214 969 12 11 266 53 388 63 69 6
143 13 165 15 89 9 394 -4 485 -20z m2228 -39 c49 -30 69 -84 97 -261 85 -552
112 -1412 69 -2256 l-7 -138 -269 0 c-343 0 -348 2 -348 137 0 37 6 124 14
193 8 69 16 170 18 225 l3 100 -277 3 -277 2 -37 -117 c-20 -65 -65 -212 -99
-328 l-63 -210 -272 0 -272 0 -24 28 c-43 50 -35 111 47 352 226 668 511 1348
849 2025 67 135 127 251 133 258 8 11 79 13 346 10 314 -3 338 -4 369 -23z"/>
<path d="M4478 3953 c-9 -2 -24 -21 -34 -41 -15 -31 -19 -70 -22 -227 -6 -288
14 -355 106 -355 54 0 79 21 91 80 14 64 14 379 1 451 -15 82 -63 113 -142 92z"/>
<path d="M3623 2403 c-17 -2 -36 -10 -41 -16 -12 -15 -176 -776 -169 -784 3
-2 50 -7 104 -10 267 -15 430 124 479 407 37 214 -10 337 -145 385 -45 15
-174 26 -228 18z"/>
<path d="M5783 2228 c-99 -224 -121 -281 -239 -613 l-103 -290 211 -3 c116 -1
214 0 217 4 9 9 5 963 -5 1017 l-9 48 -72 -163z"/>
</g>
</svg>
